<?xml version="1.0" encoding="utf-8"?>
<!-- Generator: Adobe Illustrator 24.3.0, SVG Export Plug-In . SVG Version: 6.00 Build 0)  -->
<svg version="1.1" id="katman_1" xmlns="http://www.w3.org/2000/svg" xmlns:xlink="http://www.w3.org/1999/xlink" x="0px" y="0px"
	 viewBox="0 0 150 150" style="enable-background:new 0 0 150 150;" xml:space="preserve">
<g>
	<path d="M148.92,58.01c-0.67-0.4-1.5-0.41-2.18-0.03l-27.44,15.11v-5.26c0-5.58-4.54-10.12-10.12-10.12h-5.72
		c7.74-4.97,12.88-13.65,12.88-23.5c0-4.95-1.32-9.82-3.81-14.08c-0.61-1.05-1.96-1.4-3.01-0.79c-1.05,0.61-1.4,1.96-0.79,3.01
		c2.1,3.58,3.2,7.68,3.2,11.85c0,12.96-10.54,23.5-23.5,23.5s-23.5-10.54-23.5-23.5S75.46,10.7,88.42,10.7
		c5.52,0,10.88,1.95,15.1,5.49c0.93,0.78,2.32,0.66,3.1-0.27c0.78-0.93,0.66-2.32-0.27-3.1c-5.01-4.21-11.38-6.53-17.93-6.53
		c-13.63,0-25,9.82-27.43,22.76c-3.71-4.5-9.33-7.38-15.61-7.38c-11.15,0-20.22,9.07-20.22,20.22c0,6.4,2.99,12.11,7.64,15.82
		c-5.57,0.01-10.11,4.54-10.11,10.12v0.36h-8.96l-10.6-5.02c-1.4-0.71-3.19,0.42-3.14,1.99v27.32c-0.05,1.57,1.75,2.7,3.14,1.99
		l10.6-5.02h8.96v34.72c0,5.58,4.54,10.12,10.12,10.12h57.33c1.22,0,2.2-0.99,2.2-2.2c0-1.22-0.99-2.2-2.2-2.2H32.83
		c-3.15,0-5.71-2.56-5.71-5.71V67.82c0-3.15,2.56-5.71,5.71-5.71h76.35c3.15,0,5.71,2.56,5.71,5.71v56.33
		c0,3.15-2.56,5.71-5.71,5.71H98.96c-1.22,0-2.2,0.99-2.2,2.2s0.99,2.2,2.2,2.2h10.22c5.58,0,10.12-4.54,10.12-10.12v-17.47
		l27.44,15.11c1.4,0.83,3.31-0.31,3.26-1.93V59.91C150,59.13,149.59,58.41,148.92,58.01L148.92,58.01z M4.4,68.63l6.64,3.15v14.07
		L4.4,88.99V68.63z M15.45,85.03V72.58h7.26v12.45H15.45z M29.57,41.89c0-8.72,7.09-15.82,15.82-15.82S61.2,33.17,61.2,41.89
		s-7.09,15.82-15.82,15.82C36.67,57.71,29.57,50.61,29.57,41.89z M57.96,57.71c2.96-2.36,5.25-5.53,6.52-9.18
		c2.22,3.7,5.28,6.85,8.91,9.18H57.96z M145.6,116.14l-26.3-14.48V78.11l26.3-14.48L145.6,116.14z"/>
	<path d="M77.2,34.2c0,6.19,5.03,11.22,11.22,11.22c6.19,0,11.22-5.03,11.22-11.22s-5.03-11.22-11.22-11.22S77.2,28.01,77.2,34.2z
		 M95.24,34.2c0,3.76-3.06,6.82-6.82,6.82c-3.76,0-6.82-3.06-6.82-6.82s3.06-6.82,6.82-6.82C92.18,27.38,95.24,30.44,95.24,34.2z"/>
	<path d="M45.39,49.82c4.37,0,7.93-3.56,7.93-7.93s-3.56-7.93-7.93-7.93c-4.37,0-7.93,3.56-7.93,7.93
		C37.46,46.26,41.01,49.82,45.39,49.82z M45.39,38.36c1.95,0,3.53,1.58,3.53,3.53c0,1.95-1.58,3.53-3.53,3.53
		c-1.95,0-3.53-1.58-3.53-3.53C41.86,39.95,43.44,38.36,45.39,38.36z"/>
	<path d="M96.76,101.73V77.71c0-2.83-2.3-5.14-5.14-5.14H67.81c-1.22,0-2.2,0.99-2.2,2.2s0.99,2.2,2.2,2.2h23.81
		c0.4,0,0.73,0.33,0.73,0.73v24.02c0,0.4-0.33,0.73-0.73,0.73H50.38c-0.4,0-0.73-0.33-0.73-0.73V77.71c0-0.4,0.33-0.73,0.73-0.73H59
		c1.22,0,2.2-0.99,2.2-2.2s-0.99-2.2-2.2-2.2h-8.62c-2.83,0-5.14,2.3-5.14,5.14v24.02c0,2.83,2.3,5.14,5.14,5.14h41.24
		C94.45,106.87,96.76,104.56,96.76,101.73z"/>
	<path d="M82.85,114.52c-1.22,0-2.2,0.99-2.2,2.2s0.99,2.2,2.2,2.2h5.49c1.22,0,2.2-0.99,2.2-2.2s-0.99-2.2-2.2-2.2H82.85z"/>
	<path d="M68.26,114.52c-1.22,0-2.2,0.99-2.2,2.2s0.99,2.2,2.2,2.2h5.49c1.22,0,2.2-0.99,2.2-2.2s-0.99-2.2-2.2-2.2H68.26z"/>
	<path d="M53.67,114.52c-1.22,0-2.2,0.99-2.2,2.2s0.99,2.2,2.2,2.2h5.49c1.22,0,2.2-0.99,2.2-2.2s-0.99-2.2-2.2-2.2H53.67z"/>
</g>
</svg>
